<svg viewBox="-6.4 -6.4 76.80 76.80" xmlns="http://www.w3.org/2000/svg" xmlns:xlink="http://www.w3.org/1999/xlink" aria-hidden="true" role="img" class="iconify iconify--emojione" preserveAspectRatio="xMidYMid meet" fill="#000000"><g id="SVGRepo_bgCarrier" stroke-width="0"><path transform="translate(-6.4, -6.4), scale(2.4)" d="M16,31.211375947509495C18.222241985630856,30.9710057573399,19.719948266197076,28.875201726919578,21.71459642332786,27.866481745816046C23.667743675318007,26.878749321891252,26.165758185163146,26.896007574674268,27.672446307238765,25.3084653131816C29.19098699557108,23.70843443538941,29.858877658325273,21.38877536860389,29.954010605685564,19.184911862318675C30.044592831398894,17.08647102655179,28.48962166760084,15.296251386887946,28.19440450832459,13.216706746901089C27.86753193923385,10.914177650429032,29.210253801517034,8.386484924543273,28.128760800174966,6.327636021740414C27.058692691218923,4.290536799355662,24.777743552827907,2.9370289207582694,22.531756509275745,2.436667851288288C20.344261532002758,1.9493376463208303,18.231187016281794,3.4148072106557517,16,3.62559028076274C13.995921194082147,3.8149181499037454,11.975114555686579,3.0741852236915332,10.036705411082517,3.6170911920488056C7.958478957377743,4.199156927992675,5.524111015578719,4.933582101258773,4.51617789071209,6.841957465183489C3.4726478671996004,8.817730400169154,5.105913770684055,11.23444126631954,4.841648414290722,13.453179065610874C4.6111155706623315,15.388703044679552,2.77177123969232,17.02464357345048,3.0740026459769627,18.9502745460401C3.375466649932545,20.871016107196795,5.385329453255279,21.99078328774982,6.438181309775219,23.62529595477266C7.6102870909283205,25.444945827184853,7.9617030913810005,27.825388310495683,9.65734345232956,29.170662032347288C11.419317843502034,30.568563321801037,13.76389162918353,31.453246003879798,16,31.211375947509495" fill="#8c0199" strokewidth="0"></path></g><g id="SVGRepo_tracerCarrier" stroke-linecap="round" stroke-linejoin="round"></g><g id="SVGRepo_iconCarrier"><path d="M62 27.9l-5.8-5.8l-6.5 6.5c-.3.3-.8.3-1 0L35.4 15.3c-.3-.3-.3-.8 0-1l6.5-6.5L36.1 2L2 36.1l5.8 5.8l6.3-6.3c.3-.3.8-.3 1 0l13.2 13.2c.3.3.3.8 0 1L22 56.1l5.8 5.8l34.2-34m-7.7 0c-.3-.3-.3-.7 0-.9l2-2c.3-.3.7-.3.9 0l2 2c.3.3.3.7 0 .9l-2 2c-.3.3-.7.3-.9 0l-2-2M34.1 7.7c-.3-.3-.3-.7 0-.9l2-2c.3-.3.7-.3.9 0l2 2c.3.3.3.7 0 .9l-2 2c-.3.3-.7.3-.9 0l-2-2M9.6 36.1c.3.3.3.7 0 .9l-2 2c-.3.3-.7.3-.9 0l-2-2c-.3-.3-.3-.7 0-.9l2-2c.3-.3.7-.3.9 0l2 2m32 8.4c.3.3.3.7 0 .9l-2 2c-.3.3-.7.3-.9 0l-2-2c-.3-.3-.3-.7 0-.9l2-2c.3-.3.7-.3.9 0l2 2m5.8-5.9c.3.3.3.7 0 .9l-2 2c-.3.3-.7.3-.9 0l-2-2c-.3-.3-.3-.7 0-.9l2-2c.3-.3.7-.3.9 0l2 2M28.2 13.5c-.3-.3-.3-.7 0-.9l2-2c.3-.3.7-.3.9 0l2 2c.3.3.3.7 0 .9l-2 2c-.3.3-.7.3-.9 0l-2-2m20.2 20.2c-.3-.3-.3-.7 0-.9l2-2c.3-.3.7-.3.9 0l2 2c.3.3.3.7 0 .9l-2 2c-.3.3-.7.3-.9 0l-2-2m-26-14.3c-.3-.3-.3-.7 0-.9l2-2c.3-.3.7-.3.9 0l2 2c.3.3.3.7 0 .9l-2 2c-.3.3-.7.3-.9 0l-2-2m-5.9 5.9c-.3-.3-.3-.7 0-.9l2-2c.3-.3.7-.3.9 0l2 2c.3.3.3.7 0 .9l-2 2c-.3.3-.7.3-.9 0l-2-2m1.8 7.2c-.3-.3-.3-.8 0-1l13.2-13.2c.3-.3.8-.3 1 0l13.2 13.2c.3.3.3.8 0 1L32.5 45.7c-.3.3-.8.3-1 0L18.3 32.5m-7.7-1.4c-.3-.3-.3-.7 0-.9l2-2c.3-.3.7-.3.9 0l2 2c.3.3.3.7 0 .9l-2 2c-.3.3-.7.3-.9 0l-2-2m20.2 20.2c-.3-.3-.3-.7 0-.9l2-2c.3-.3.7-.3.9 0l2 2c.3.3.3.7 0 .9l-2 2c-.3.3-.7.3-.9 0l-2-2m-5.9 5.9c-.3-.3-.3-.7 0-.9l2-2c.3-.3.7-.3.9 0l2 2c.3.3.3.7 0 .9l-2 2c-.3.3-.7.3-.9 0l-2-2" fill="#FFF"></path></g></svg>